<?xml version="1.0" encoding="UTF-8" standalone="no"?>
<!-- Created with Inkscape (http://www.inkscape.org/) -->

<svg
   xmlns:dc="http://purl.org/dc/elements/1.1/"
   xmlns:cc="http://creativecommons.org/ns#"
   xmlns:rdf="http://www.w3.org/1999/02/22-rdf-syntax-ns#"
   xmlns:svg="http://www.w3.org/2000/svg"
   xmlns="http://www.w3.org/2000/svg"
   xmlns:sodipodi="http://sodipodi.sourceforge.net/DTD/sodipodi-0.dtd"
   xmlns:inkscape="http://www.inkscape.org/namespaces/inkscape"
   width="123"
   height="89"
   viewBox="0 0 32.543749 23.547916"
   version="1.1"
   id="svg997"
   inkscape:version="0.92.3 (2405546, 2018-03-11)"
   sodipodi:docname="logo.svg">
  <defs
     id="defs991" />
  <sodipodi:namedview
     id="base"
     pagecolor="#ffffff"
     bordercolor="#666666"
     borderopacity="1.0"
     inkscape:pageopacity="0.0"
     inkscape:pageshadow="2"
     inkscape:zoom="9.3078125"
     inkscape:cx="62.415218"
     inkscape:cy="30.763492"
     inkscape:document-units="mm"
     inkscape:current-layer="layer1"
     showgrid="false"
     units="px"
     inkscape:window-width="1920"
     inkscape:window-height="1021"
     inkscape:window-x="0"
     inkscape:window-y="33"
     inkscape:window-maximized="1" />
  <metadata
     id="metadata994">
    <rdf:RDF>
      <cc:Work
         rdf:about="">
        <dc:format>image/svg+xml</dc:format>
        <dc:type
           rdf:resource="http://purl.org/dc/dcmitype/StillImage" />
        <dc:title></dc:title>
      </cc:Work>
    </rdf:RDF>
  </metadata>
  <g
     inkscape:label="Layer 1"
     inkscape:groupmode="layer"
     id="layer1"
     transform="translate(0,-273.45209)">
    <path
       style="fill:#f9f9f9;stroke-width:0.08466666"
       d="m 1.7447243,295.86063 1.083812,-1.10196 0.02473,0.53814 0.02473,0.53813 -0.572196,0.56382 -0.572197,0.56383 H 1.1972593 0.66091532 Z m 1.126146,0.59396 v -0.508 h 0.550333 0.550333 v 0.508 0.508 h -0.550333 -0.550333 z m 6.773333,0 v -0.508 h 0.5503327 0.550336 v 0.508 0.508 H 10.194536 9.6442033 Z m 4.9293887,-0.0234 -0.52672,-0.53145 v -0.55994 -0.55994 l 0.54695,0.56222 0.54696,0.56222 0.577,-0.5715 0.577,-0.5715 h 1.16205 1.16204 v 0.55033 0.55033 h -1.16662 -1.16661 l -0.54544,0.55033 c -0.29999,0.30269 -0.56669,0.55034 -0.59267,0.55034 -0.026,0 -0.28425,-0.23915 -0.57394,-0.53145 z m 6.76663,-0.007 -0.53343,-0.53822 -0.0145,-0.56045 -0.0145,-0.56045 0.5715,0.56723 0.5715,0.56722 0.57295,-0.56856 0.57295,-0.56856 0.56922,0.56921 0.56921,0.56922 0.55117,-0.54627 0.55116,-0.54627 v 0.55033 0.55034 l -0.55042,0.54552 -0.55042,0.54553 -0.5737,-0.5693 -0.5737,-0.5693 -0.5456,0.55049 c -0.30008,0.30277 -0.56685,0.5505 -0.59282,0.5505 -0.026,0 -0.28727,-0.2422 -0.58066,-0.53821 z m 6.16865,-1.70546 v -2.24364 h 0.55033 0.55033 v 2.24367 2.24367 h -0.55033 -0.55033 z m 2.286,1.73567 v -0.508 h 0.55033 0.55033 v 0.508 0.508 h -0.55033 -0.55033 z m -25.7386687,-1.143 v -0.55031 h 0.550333 0.550334 v 0.55034 0.55033 h -0.550334 -0.550333 z m 3.275367,-0.57149 0.0157,-1.12185 0.5558,-0.025 0.555799,-0.025 v -0.54644 -0.54647 h 0.550334 0.550333 v 0.50396 0.50396 l -0.529167,0.0252 -0.529166,0.0252 -0.02488,0.61384 -0.02488,0.61383 h 0.554043 0.554042 v 0.55033 0.55034 l -1.121833,1e-5 -1.121833,10e-6 z m 3.4133017,0.57149 v -0.55031 h 0.55033 0.55033 v 0.55034 0.55033 h -0.55033 -0.55033 z m 20.23533,0 v -0.55031 l 0.52917,-1.7e-4 0.52916,-1.7e-4 -0.0284,0.55051 -0.0284,0.55052 h -0.50077 -0.50078 v -0.55034 z M 0.58487032,295.2671 v -0.55069 l 1.12742198,-1.12511 1.127422,-1.1251 0.525015,0.0256 0.525015,0.0256 -1.652437,1.65019 -1.65243698,1.65018 z m 3.43022098,-1.69319 1.099445,-1.10251 0.02558,0.52443 0.02559,0.52444 -0.573648,0.57808 -0.573648,0.57808 h -0.551381 -0.551383 z m 5.629112,0.55218 v -0.55033 h 0.5503327 0.550336 v -0.55033 -0.55034 h 0.55033 0.55033 v 0.50396 0.50396 l -0.52916,0.0252 -0.52917,0.0252 -0.025,0.5715 -0.025,0.5715 H 10.190737 9.6442733 Z m 13.9276687,-0.0423 -0.58813,-0.59267 h -1.10293 -1.10294 v -0.508 -0.508 h 1.14087 1.14088 l 0.577,0.5715 0.57701,0.5715 0.54695,-0.56222 0.54695,-0.56222 v 0.55274 0.55274 l -0.52584,0.53865 c -0.28921,0.29625 -0.54741,0.53865 -0.57377,0.53865 -0.0264,0 -0.31258,-0.2667 -0.63605,-0.59267 z m 6.223,-0.508 v -1.10067 h 0.55033 0.55033 v 1.10067 1.10067 h -0.55033 -0.55033 z M 0.58487032,292.98312 v -0.508 h 0.52651598 0.526516 l -0.502699,0.508 c -0.27648498,0.2794 -0.51341698,0.508 -0.52651598,0.508 -0.0131,0 -0.02382,-0.2286 -0.02382,-0.508 z m 13.46200168,0 v -0.508 h 2.286 2.286 v 0.508 0.508 h -2.286 -2.286 z m -13.66452568,-3.1817 c -0.02831,-0.0738 -0.05148,-3.5445 -0.05148,-7.7127 0,-7.45035 -0.0029,-7.5822 -0.169334,-7.79383 -0.203658,-0.25891 -0.213128,-0.4309 -0.03753,-0.68159 0.244157,-0.34859 0.94995898,-0.18993 0.97889698,0.22004 0.01806,0.25583 -0.02316,0.3937 -0.16512598,0.55238 -0.127719,0.14276 -0.139873,0.80176 -0.140525,7.62 l -7.14e-4,7.46374 15.51516768,0.0214 15.51517,0.0214 v -1.05856 -1.05856 h -1.46285 c -1.37234,0 -1.47209,0.0108 -1.61221,0.17443 -0.21174,0.2473 -0.62395,0.19174 -0.85183,-0.11481 -0.16226,-0.21828 -0.16601,-0.25447 -0.0481,-0.46455 0.19653,-0.35014 0.53079,-0.43145 0.83849,-0.20395 0.23517,0.17387 0.34174,0.18554 1.69372,0.18554 h 1.44276 v -1.10066 -1.10066 h -1.44714 c -1.31894,0 -1.46621,0.015 -1.66242,0.16933 -0.29494,0.23201 -0.56905,0.21309 -0.77895,-0.0537 -0.21954,-0.2791 -0.21954,-0.3754 0,-0.6545 0.21578,-0.27432 0.60696,-0.30003 0.81783,-0.0538 0.1346,0.15721 0.24976,0.16933 1.60784,0.16933 h 1.46285 v -1.14299 -1.143 h -1.48167 c -0.9053,0 -1.48167,0.0321 -1.48167,0.0825 0,0.0454 -0.11245,0.14064 -0.24989,0.21172 -0.31827,0.16458 -0.62657,0.0427 -0.77045,-0.3047 -0.21445,-0.51773 0.38938,-0.93687 0.85439,-0.59307 0.22624,0.16726 0.3475,0.18022 1.68653,0.18022 h 1.44276 v -1.05833 -1.05834 h -4.14867 -4.14867 v 3.57797 c 0,3.48627 0.004,3.58068 0.16934,3.68372 0.22021,0.13752 0.22879,0.61693 0.0145,0.81086 -0.51728,0.46812 -1.27029,-0.29743 -0.77738,-0.79033 0.16238,-0.16239 0.16924,-0.30341 0.1905,-3.91584 l 0.0221,-3.74738 4.33916,-0.0219 4.33917,-0.0219 v -2.31444 c 0,-2.20692 -0.008,-2.32156 -0.16933,-2.46769 -0.34853,-0.31541 -0.10807,-0.889 0.37268,-0.889 0.50976,0 0.74908,0.57157 0.38976,0.93089 -0.16592,0.16593 -0.16926,0.30337 -0.1905,7.85283 l -0.0216,7.68395 -15.88702,0.0214 c -14.4322817,0.0194 -15.89173468,0.009 -15.93849768,-0.11276 z M 16.730342,286.87771 c -0.23027,-0.13396 -0.0289,-0.34587 0.23381,-0.246 0.22491,0.0855 0.55405,-0.0965 0.55405,-0.30645 0,-0.099 -0.0585,-0.11607 -0.2521,-0.0736 -0.51936,0.11407 -0.70342,-0.0852 -0.70342,-0.76158 0,-0.70727 0.0858,-0.78657 0.84969,-0.78543 l 0.4445,6.9e-4 v 0.95774 c 0,0.93381 -0.006,0.96212 -0.22309,1.13321 -0.2394,0.18832 -0.65526,0.22579 -0.90344,0.0814 z m 0.65481,-0.9703 c 0.31264,-0.31264 0.0579,-1.06931 -0.29616,-0.87981 -0.22244,0.11905 -0.23364,0.79423 -0.0153,0.92141 0.0815,0.0475 0.15497,0.0875 0.16328,0.0889 0.008,10e-4 0.075,-0.0573 0.14817,-0.13048 z M 3.5482033,285.40546 v -0.97367 h -0.296333 c -0.239889,0 -0.296334,-0.0323 -0.296334,-0.16933 0,-0.15745 0.05644,-0.16934 0.804334,-0.16934 0.747889,0 0.804333,0.0119 0.804333,0.16934 0,0.13708 -0.05644,0.16933 -0.296333,0.16933 h -0.296334 v 0.97367 0.97366 h -0.211666 -0.211667 z m 1.71745,0.85198 c -0.634123,-0.28341 -0.40657,-1.57165 0.277613,-1.57165 0.307022,0 0.629719,0.17994 0.671341,0.37435 0.127624,0.5961 0.125992,0.59856 -0.403581,0.60838 -0.555194,0.0103 -0.641765,0.0558 -0.479005,0.25195 0.08695,0.10477 0.201366,0.12621 0.474049,0.0888 0.377975,-0.0518 0.526943,0.0324 0.336631,0.19039 -0.191562,0.15898 -0.591591,0.18532 -0.877048,0.0577 z m 0.653217,-0.97601 c 0,-0.13935 -0.218722,-0.34164 -0.369387,-0.34164 -0.09077,0 -0.307947,0.27296 -0.307947,0.38705 0,0.0847 0.1016,0.12095 0.338667,0.12095 0.280201,0 0.338667,-0.0287 0.338667,-0.16636 z m 1.211435,1.01221 c -0.484175,-0.19502 -0.607884,-1.12156 -0.194447,-1.45634 0.208647,-0.16896 0.600938,-0.19783 0.853243,-0.0628 0.147348,0.0789 0.151656,0.10282 0.03877,0.21571 -0.09711,0.0971 -0.166865,0.10567 -0.296391,0.0363 -0.13542,-0.0725 -0.203743,-0.0563 -0.340666,0.0806 -0.206036,0.20604 -0.219579,0.48797 -0.03603,0.75002 0.105151,0.15012 0.186926,0.18174 0.367509,0.14207 0.151123,-0.0332 0.267502,-0.009 0.333132,0.0705 0.0827,0.0997 0.05236,0.13845 -0.168477,0.21544 -0.309584,0.10792 -0.309602,0.10792 -0.556639,0.008 z m 1.159231,-1.05752 c 0,-1.08655 0.0084,-1.143 0.169334,-1.143 0.141194,0 0.169333,0.0564 0.169333,0.33967 v 0.33967 l 0.3175,-0.0493 c 0.525927,-0.0816 0.622442,0.0558 0.62977,0.89632 0.0057,0.64791 -0.0091,0.71726 -0.153008,0.71726 -0.138209,0 -0.162625,-0.0779 -0.184699,-0.58914 -0.03258,-0.75463 -0.183283,-0.96804 -0.476515,-0.67481 -0.09535,0.0953 -0.133048,0.29926 -0.133048,0.71966 0,0.53018 -0.01629,0.58662 -0.169333,0.58662 -0.160972,0 -0.169334,-0.0565 -0.169334,-1.143 z m 1.8626667,0.31173 v -0.84304 l 0.549969,-0.003 c 0.71644,-0.004 0.8047,0.10762 0.8047,1.01899 0,0.60205 -0.0145,0.6585 -0.16934,0.6585 -0.15284,0 -0.16933,-0.0565 -0.16933,-0.57955 0,-0.47019 -0.0316,-0.60819 -0.16774,-0.73135 -0.2771,-0.25076 -0.41364,-0.0465 -0.44253,0.66214 -0.0227,0.55563 -0.0407,0.60869 -0.215229,0.63348 -0.186613,0.0265 -0.1905,0.01 -0.1905,-0.81599 z m 2.223249,0.77162 c -0.28272,-0.0545 -0.44525,-0.3501 -0.44525,-0.8097 0,-0.32066 0.0446,-0.45297 0.20782,-0.61616 0.46735,-0.46735 1.14685,-0.12031 1.14685,0.58574 0,0.20786 -0.0237,0.4396 -0.0526,0.51498 -0.0521,0.1358 -0.46906,0.39545 -0.59937,0.37326 -0.0372,-0.006 -0.1531,-0.028 -0.25746,-0.0481 z m 0.46915,-0.38061 c 0.22865,-0.22865 0.0492,-0.99907 -0.23275,-0.99907 -0.22945,0 -0.4133,0.64174 -0.26385,0.92099 0.10624,0.19851 0.3395,0.23518 0.4966,0.0781 z m 1.13877,0.31039 c -0.17946,-0.12598 -0.1905,-0.19235 -0.1905,-1.14493 0,-0.95475 0.01,-1.0112 0.16933,-1.0112 0.15916,0 0.16933,0.0564 0.16933,0.93926 0,0.87546 0.0118,0.94234 0.17344,0.98462 0.1962,0.0513 0.19245,0.30419 -0.005,0.34191 -0.0693,0.0132 -0.21176,-0.0361 -0.31653,-0.10966 z m 1.19439,0.0477 c -0.42327,-0.17506 -0.58092,-0.78066 -0.32969,-1.26648 0.17676,-0.34183 0.60846,-0.45719 0.97558,-0.26071 0.35527,0.19014 0.42419,1.09216 0.1054,1.37943 -0.19431,0.1751 -0.52699,0.24053 -0.75129,0.14776 z m 0.46084,-0.35813 c 0.16797,-0.16797 0.12838,-0.80945 -0.056,-0.90814 -0.23956,-0.12821 -0.44916,0.0704 -0.45951,0.43541 -0.0131,0.46231 0.26811,0.72016 0.51555,0.47273 z m 2.78564,0.38674 c -0.0326,-0.0327 -0.0594,-0.41497 -0.0594,-0.84959 0,-0.78947 2e-4,-0.79022 0.21473,-0.79022 h 0.21473 l -0.0242,0.82452 c -0.0195,0.66433 -0.0497,0.82939 -0.15536,0.84959 -0.0721,0.0138 -0.15784,-0.002 -0.1905,-0.0343 z m 1.1598,-0.0641 c -0.30871,-0.13826 -0.37251,-0.27223 -0.37251,-0.78217 0,-0.28836 0.0493,-0.42717 0.20782,-0.58574 0.41852,-0.41852 1.11084,-0.13915 1.16353,0.46951 l 0.0256,0.29634 -0.48884,0.009 c -0.55502,0.0103 -0.64176,0.0558 -0.47924,0.25166 0.0817,0.0985 0.20291,0.12596 0.42461,0.0962 0.37704,-0.0506 0.56459,0.0353 0.39124,0.17919 -0.19403,0.16103 -0.59267,0.19116 -0.87227,0.0659 z m 0.64349,-0.98008 c 0,-0.13935 -0.21872,-0.34165 -0.36938,-0.34165 -0.0908,0 -0.30795,0.27296 -0.30795,0.38705 0,0.0847 0.1016,0.12095 0.33867,0.12095 0.2802,0 0.33866,-0.0287 0.33866,-0.16635 z m -1.86266,-1.01898 c 0,-0.12418 0.0564,-0.16934 0.21166,-0.16934 0.15523,0 0.21167,0.0452 0.21167,0.16934 0,0.12417 -0.0564,0.16933 -0.21167,0.16933 -0.15522,0 -0.21166,-0.0452 -0.21166,-0.16933 z M 3.1248703,280.66406 v -1.143 h 0.211666 0.211667 v 1.143 1.143 h -0.211667 -0.211666 z m 0.931333,0.30585 v -0.83716 l 0.542982,-0.003 c 0.746757,-0.004 0.854018,0.11974 0.854018,0.98767 0,0.60696 -0.01191,0.64913 -0.1905,0.6745 -0.183065,0.026 -0.1905,0.002 -0.1905,-0.60963 0,-0.5147 -0.02797,-0.65233 -0.14598,-0.71837 -0.09261,-0.0518 -0.200954,-0.0523 -0.296334,-10e-4 -0.123412,0.066 -0.150353,0.19371 -0.150353,0.71248 0,0.61771 -0.0048,0.63202 -0.211666,0.63202 -0.211507,0 -0.211667,-6.3e-4 -0.211667,-0.83715 z m 1.944028,0.81599 c -0.0018,-0.0117 -0.01134,-0.38843 -0.02117,-0.83731 l -0.01786,-0.81613 0.513401,-0.003 c 0.28237,-0.002 0.552891,0.0228 0.601158,0.0541 0.191553,0.12458 0.282441,0.45447 0.282441,1.02517 0,0.58167 -0.0059,0.59823 -0.211666,0.59823 -0.206838,0 -0.211667,-0.0144 -0.211667,-0.63079 0,-0.50912 -0.02816,-0.64655 -0.145981,-0.71249 -0.09261,-0.0518 -0.200953,-0.0523 -0.296333,-0.001 -0.123412,0.066 -0.150353,0.1937 -0.150353,0.71247 0,0.57558 -0.01512,0.63202 -0.169333,0.63202 -0.09313,0 -0.170821,-0.01 -0.172638,-0.0212 z m 2.00439,-0.15432 c -0.195628,-0.15388 -0.223085,-0.2365 -0.223085,-0.67128 0,-0.54019 0.107656,-0.72195 0.483477,-0.81627 0.3741,-0.0939 0.646721,0.0632 0.781155,0.45022 0.294017,0.84638 -0.402465,1.54004 -1.041547,1.03733 z m 0.606649,-0.26478 c 0.160563,-0.16057 0.128839,-0.80608 -0.04438,-0.90302 -0.261307,-0.14623 -0.446686,0.0365 -0.446686,0.44033 0,0.35362 0.110628,0.56429 0.296333,0.56429 0.05122,0 0.138854,-0.0457 0.194733,-0.1016 z m 1.331984,0.34069 c -0.02151,-0.0617 -0.154742,-0.43371 -0.296078,-0.8268 -0.141335,-0.39309 -0.256973,-0.72646 -0.256973,-0.74083 0,-0.0144 0.089,-0.0261 0.197786,-0.0261 0.1696,0 0.217911,0.0724 0.339022,0.508 0.07768,0.2794 0.1749357,0.508 0.2161247,0.508 0.04119,0 0.100541,-0.13674 0.131895,-0.30388 0.09244,-0.49275 0.224841,-0.71212 0.429811,-0.71212 0.18408,0 0.18227,0.012 -0.12475,0.82537 -0.205446,0.54429 -0.360272,0.83475 -0.454638,0.85292 -0.0787,0.0152 -0.1606927,-0.0229 -0.1821997,-0.0845 z m 1.3096177,-0.0698 c -0.36685,-0.36685 -0.12224,-0.762 0.47171,-0.762 0.40556,0 0.48843,-0.12843 0.24191,-0.37495 -0.15686,-0.15686 -0.13835,-0.15444 -0.40522,-0.053 -0.15424,0.0586 -0.2365,0.0489 -0.30731,-0.0364 -0.24489,-0.29507 0.72547,-0.41775 1.01491,-0.12832 0.14111,0.14111 0.16933,0.28223 0.16933,0.84667 0,0.62089 -0.0141,0.67733 -0.16933,0.67733 -0.0931,0 -0.16934,-0.0394 -0.16934,-0.0876 0,-0.0604 -0.0509,-0.0604 -0.16376,0 -0.251,0.13433 -0.49622,0.10499 -0.6829,-0.0817 z m 0.74506,-0.27093 c 0.16972,-0.16972 0.11581,-0.23707 -0.18973,-0.23707 -0.29784,0 -0.43705,0.10289 -0.34367,0.254 0.0723,0.11703 0.41016,0.10631 0.5334,-0.0169 z m 1.1176,0.27093 c -0.1317,-0.1317 -0.16933,-0.28222 -0.16933,-0.67733 0,-0.2794 -0.0318,-0.508 -0.0706,-0.508 -0.0388,0 -0.0706,-0.0572 -0.0706,-0.127 0,-0.0699 0.0318,-0.127 0.0706,-0.127 0.0388,0 0.0706,-0.1143 0.0706,-0.254 0,-0.21449 0.0329,-0.254 0.21167,-0.254 0.17874,0 0.21166,0.0395 0.21166,0.254 0,0.16933 0.0423,0.254 0.127,0.254 0.0699,0 0.127,0.0572 0.127,0.127 0,0.0699 -0.0571,0.127 -0.127,0.127 -0.0988,0 -0.127,0.11289 -0.127,0.508 0,0.39511 0.0282,0.508 0.127,0.508 0.0706,0 0.127,0.0753 0.127,0.16933 0,0.11289 -0.0564,0.16933 -0.16933,0.16933 -0.0931,0 -0.24553,-0.0762 -0.33867,-0.16933 z m 0.93134,-0.67733 c 0,-0.82153 0.006,-0.84668 0.1905,-0.84685 0.18665,-1.8e-4 0.18996,0.0169 0.16371,0.84666 -0.0244,0.77148 -0.0414,0.84685 -0.1905,0.84685 -0.15092,0 -0.16371,-0.0661 -0.16371,-0.84666 z m 1.09415,0.59918 c -0.28291,-0.28291 -0.32997,-0.70209 -0.12362,-1.10113 0.34528,-0.6677 1.31547,-0.33283 1.31547,0.45405 0,0.21092 -0.016,0.21723 -0.55034,0.21723 -0.30268,0 -0.55033,0.0334 -0.55033,0.0743 0,0.16556 0.2642,0.27535 0.60031,0.24947 0.41223,-0.0317 0.52336,0.10799 0.20223,0.25431 -0.35661,0.16248 -0.62802,0.11747 -0.89372,-0.14823 z m 0.79376,-0.73732 c 0.0759,-0.0759 -0.0804,-0.34041 -0.23648,-0.40032 -0.1333,-0.0512 -0.4661,0.21241 -0.4661,0.36912 0,0.0917 0.6148,0.11898 0.70258,0.0312 z m 1.86412,0.90349 c -0.27973,-0.11867 -0.38954,-0.39936 -0.34353,-0.87815 0.0295,-0.30727 0.0941,-0.46977 0.23063,-0.58032 0.4274,-0.34609 1.0696,-0.0455 1.11888,0.52378 l 0.0256,0.29634 -0.52917,0.0252 c -0.29104,0.0139 -0.52916,0.0568 -0.52916,0.0955 0,0.16155 0.26907,0.28004 0.53715,0.23653 0.35398,-0.0574 0.54035,0.0367 0.36341,0.18353 -0.16828,0.13966 -0.64835,0.19329 -0.87386,0.0976 z m 0.65063,-1.01637 c 0,-0.13935 -0.21872,-0.34165 -0.36938,-0.34165 -0.0908,0 -0.30795,0.27296 -0.30795,0.38705 0,0.0847 0.1016,0.12095 0.33867,0.12095 0.2802,0 0.33866,-0.0287 0.33866,-0.16635 z m 0.84667,0.26467 V 280.141 l 0.504,-0.005 c 0.73384,-0.007 0.80227,0.0702 0.83819,0.94428 l 0.0298,0.72649 h -0.22035 c -0.21724,0 -0.22036,-0.009 -0.22036,-0.61807 0,-0.75725 -0.1564,-0.99143 -0.45962,-0.68822 -0.0953,0.0953 -0.13305,0.29927 -0.13305,0.71967 0,0.53018 -0.0163,0.58662 -0.16933,0.58662 -0.15786,0 -0.16933,-0.0564 -0.16933,-0.83301 z m -5.24933,-1.28365 c 0,-0.11289 0.0565,-0.16934 0.16933,-0.16934 0.11289,0 0.16933,0.0565 0.16933,0.16934 0,0.11289 -0.0564,0.16933 -0.16933,0.16933 -0.11289,0 -0.16933,-0.0564 -0.16933,-0.16933 z m 8.01396,-1.93611 c -0.13969,-0.055 -0.14238,-0.0731 -0.0252,-0.17038 0.0721,-0.0599 0.20773,-0.0845 0.30134,-0.0548 0.22559,0.0716 0.51526,-0.0908 0.51526,-0.28895 0,-0.13457 -0.0485,-0.15179 -0.3235,-0.11491 -0.47303,0.0634 -0.60783,-0.10778 -0.60783,-0.77209 0,-0.40706 0.0362,-0.56391 0.15483,-0.67129 0.17778,-0.16089 0.3781,-0.17805 0.61273,-0.0525 0.11289,0.0604 0.16377,0.0604 0.16377,0 0,-0.0482 0.0857,-0.0877 0.1905,-0.0878 0.18939,-1.8e-4 0.19025,0.006 0.14817,1.02309 -0.0367,0.88633 -0.0643,1.03932 -0.20669,1.14318 -0.17292,0.12617 -0.6587,0.15062 -0.92335,0.0465 z m 0.77462,-1.43474 c -0.0244,-0.37878 -0.0371,-0.39682 -0.27958,-0.39682 -0.24027,0 -0.25546,0.0204 -0.28092,0.37793 -0.0315,0.44247 0.14509,0.65173 0.42403,0.50244 0.13083,-0.07 0.15713,-0.1632 0.13647,-0.48355 z m 3.8009,1.44891 c -0.25583,-0.0663 -0.10442,-0.23706 0.21022,-0.23706 0.31977,0 0.57763,-0.15882 0.57763,-0.35576 0,-0.0928 -0.0624,-0.10965 -0.2521,-0.068 -0.50687,0.11133 -0.7639,-0.15666 -0.7639,-0.79648 0,-0.57743 0.41976,-0.91324 0.85224,-0.68179 0.11288,0.0604 0.16376,0.0604 0.16376,0 0,-0.0482 0.0762,-0.0876 0.16933,-0.0876 0.15937,0 0.16934,0.0564 0.16934,0.95891 0,0.89286 -0.0135,0.97158 -0.19596,1.143 -0.18925,0.17779 -0.54312,0.22526 -0.93056,0.12482 z m 0.6548,-1.00511 c 0.13498,-0.13497 0.17531,-0.50498 0.0817,-0.74903 -0.0579,-0.15084 -0.41688,-0.18203 -0.50241,-0.0436 -0.11676,0.18893 -0.0562,0.70363 0.0958,0.81483 0.18647,0.13635 0.16493,0.13781 0.32491,-0.0222 z m -24.1129127,0.33331 c -0.223503,-0.12108 -0.232028,-0.14256 -0.106438,-0.26815 0.106635,-0.10663 0.158902,-0.11415 0.23873,-0.0343 0.108964,0.10897 0.475233,0.13569 0.696414,0.0508 0.07366,-0.0283 0.133925,-0.1435 0.133925,-0.25609 0,-0.21726 -0.258846,-0.36985 -0.62739,-0.36985 -0.482077,0 -0.658799,-0.77311 -0.250192,-1.09452 0.122696,-0.0965 0.326561,-0.17548 0.453032,-0.17548 0.29181,0 0.763216,0.162 0.763216,0.26229 0,0.0908 -0.09717,0.105 -0.555899,0.0814 -0.698161,-0.0358 -0.722499,0.48943 -0.02808,0.60611 0.543866,0.0914 0.796408,0.48138 0.616055,0.95137 -0.134634,0.35085 -0.8847,0.48945 -1.333371,0.24639 z m 2.034086,-0.0164 c -0.09852,-0.10887 -0.140122,-0.30996 -0.140122,-0.67733 0,-0.29189 -0.03737,-0.5225 -0.08467,-0.5225 -0.04657,0 -0.08467,-0.0572 -0.08467,-0.127 0,-0.0699 0.0381,-0.127 0.08467,-0.127 0.04657,0 0.08467,-0.1143 0.08467,-0.254 0,-0.19756 0.03763,-0.254 0.169333,-0.254 0.125808,0 0.169334,0.0564 0.169334,0.21959 0,0.14839 0.05491,0.23395 0.169333,0.26387 0.09313,0.0244 0.169333,0.0925 0.169333,0.15154 0,0.059 -0.0762,0.12717 -0.169333,0.15153 -0.133836,0.035 -0.169333,0.11549 -0.169333,0.38395 0,0.42128 0.06766,0.60752 0.220725,0.60752 0.06487,0 0.117941,0.0762 0.117941,0.16933 0,0.22057 -0.342359,0.22981 -0.537211,0.0145 z m 1.121091,-0.0233 c -0.13086,-0.13086 -0.160546,-0.28579 -0.160546,-0.83788 0,-0.62089 0.01411,-0.67733 0.169333,-0.67733 0.150723,0 0.169333,0.0564 0.169333,0.51357 0,0.58545 0.102936,0.8411 0.338667,0.8411 0.235731,0 0.338667,-0.25565 0.338667,-0.8411 0,-0.45713 0.01861,-0.51357 0.169333,-0.51357 0.157859,0 0.169333,0.0564 0.169333,0.83301 v 0.83301 l -0.516787,0.005 c -0.398914,0.004 -0.553405,-0.0318 -0.677333,-0.15568 z m 1.786787,0.009 c -0.131704,-0.1317 -0.169333,-0.28221 -0.169333,-0.67732 0,-0.66378 0.19256,-0.89168 0.686662,-0.81267 l 0.329338,0.0527 v -0.33967 c 0,-0.28322 0.02814,-0.33967 0.169333,-0.33967 0.160971,0 0.169333,0.0565 0.169333,1.143 0,1.08656 -0.0084,1.143 -0.169333,1.143 -0.09313,0 -0.169333,-0.0394 -0.169333,-0.0876 0,-0.0604 -0.05088,-0.0604 -0.163768,0 -0.250995,0.13433 -0.496216,0.10499 -0.682899,-0.0817 z m 0.797807,-0.4445 c 0.185148,-0.52862 -0.347102,-1.04653 -0.543809,-0.52915 -0.07555,0.1987 -0.04594,0.55459 0.06203,0.74567 0.08508,0.15056 0.403301,0.008 0.481779,-0.21651 z m 0.895526,-0.23282 v -0.84667 h 0.2116667 0.211666 v 0.84667 0.84666 H 10.025203 9.8135363 Z m 1.2120357,0.7614 c -0.27882,-0.11233 -0.38964,-0.39435 -0.34353,-0.8742 0.0473,-0.49178 0.26873,-0.73387 0.67139,-0.73387 0.34439,0 0.7461,0.40676 0.7461,0.75549 v 0.26051 h -0.55033 c -0.30268,0 -0.55033,0.0334 -0.55033,0.0743 0,0.16145 0.26693,0.28453 0.52988,0.24432 0.48716,-0.0745 0.65367,0.0859 0.27047,0.26045 -0.25021,0.11401 -0.51205,0.11841 -0.77365,0.013 z m 0.63535,-1.03657 c -0.0351,-0.24732 -0.39539,-0.31114 -0.55147,-0.0977 -0.17457,0.23873 -0.13442,0.28819 0.23397,0.28819 0.30889,0 0.34176,-0.0197 0.3175,-0.1905 z m 1.25786,1.0613 c -0.0238,-0.0385 -0.17638,-0.42377 -0.33914,-0.85627 l -0.29594,-0.78635 0.21708,0.0261 c 0.18065,0.0217 0.23743,0.0971 0.3384,0.44941 0.0667,0.23283 0.15271,0.45603 0.19108,0.496 0.0384,0.04 0.13884,-0.16006 0.22328,-0.4445 0.13136,-0.4425 0.1822,-0.51717 0.35213,-0.51717 0.2248,0 0.23226,-0.0504 -0.1462,0.98871 -0.21926,0.60201 -0.41937,0.84039 -0.54069,0.64409 z m 1.49758,-0.0385 c -0.33689,-0.16313 -0.47461,-0.76298 -0.27549,-1.19999 0.14392,-0.31586 0.60264,-0.47906 0.96054,-0.34173 0.17714,0.068 0.38479,0.47137 0.38479,0.74754 0,0.20936 -0.0167,0.21587 -0.55331,0.21587 -0.53374,0 -0.54999,0.006 -0.45929,0.17568 0.0781,0.14588 0.15976,0.17102 0.48154,0.14817 0.44091,-0.0313 0.56423,0.10328 0.23294,0.25423 -0.26112,0.11897 -0.52632,0.11905 -0.77172,2.2e-4 z m 0.73117,-0.88021 c 0,-0.17252 -0.20592,-0.37543 -0.381,-0.37543 -0.20064,0 -0.4289,0.26253 -0.32157,0.36986 0.0663,0.0664 0.70257,0.0714 0.70257,0.006 z m 0.762,0.14103 v -0.8382 h 0.49554 c 0.27255,0 0.54105,0.0281 0.59667,0.0625 0.14846,0.0917 -0.12269,0.29251 -0.40185,0.29752 -0.22128,0.004 -0.22506,0.014 -0.24942,0.66021 -0.0239,0.63376 -0.0318,0.65616 -0.23283,0.65616 -0.20702,0 -0.20811,-0.004 -0.20811,-0.8382 z m 1.64716,0.63038 c -0.17002,-0.17001 -0.20782,-0.2921 -0.20782,-0.67118 0,-0.39975 0.0306,-0.48747 0.22308,-0.63885 0.48142,-0.37869 1.13158,-0.0682 1.13158,0.54034 v 0.30018 h -0.508 c -0.2794,0 -0.508,0.0334 -0.508,0.0743 0,0.17149 0.26147,0.28181 0.54281,0.22903 0.34412,-0.0646 0.49472,0.087 0.25828,0.25985 -0.25403,0.18575 -0.69704,0.14123 -0.93193,-0.0937 z m 0.80818,-0.80125 c 0,-0.33248 -0.51301,-0.50596 -0.62594,-0.21167 -0.0949,0.24725 -0.053,0.28941 0.28727,0.28941 0.18627,0 0.33867,-0.035 0.33867,-0.0777 z m 0.80433,0.1732 v -0.83601 l 0.52562,-1.4e-4 c 0.71543,-2e-4 0.81886,0.12062 0.85894,1.00332 l 0.0304,0.6687 h -0.21707 c -0.21218,0 -0.21762,-0.0148 -0.24179,-0.65616 l -0.0247,-0.65617 h -0.254 -0.254 l -0.0247,0.65617 c -0.0231,0.61282 -0.0371,0.65617 -0.21166,0.65624 -0.18019,7e-5 -0.18694,-0.0301 -0.18694,-0.83595 z m 1.905,-0.0108 c 0,-0.79023 0.0113,-0.84667 0.16933,-0.84667 0.15805,0 0.16934,0.0564 0.16934,0.84667 0,0.79022 -0.0113,0.84666 -0.16934,0.84666 -0.15804,0 -0.16933,-0.0564 -0.16933,-0.84666 z m 2.62467,0 v -0.84667 h 0.21166 0.21167 v 0.84667 0.84666 h -0.21167 -0.21166 z m 0.93133,0.0137 v -0.83301 l 0.51679,-0.005 c 0.73537,-0.007 0.83788,0.11462 0.83788,0.99356 0,0.62089 -0.0141,0.67733 -0.16934,0.67733 -0.15072,0 -0.16933,-0.0564 -0.16933,-0.51357 0,-0.57505 -0.10271,-0.8411 -0.32471,-0.8411 -0.26857,0 -0.35262,0.18567 -0.35262,0.77894 0,0.51929 -0.0166,0.57573 -0.16934,0.57573 -0.15786,0 -0.16933,-0.0564 -0.16933,-0.83301 z M 9.8135363,275.11863 c 0,-0.12418 0.05644,-0.16934 0.2116667,-0.16934 0.155222,0 0.211666,0.0452 0.211666,0.16934 0,0.12417 -0.05644,0.16933 -0.211666,0.16933 -0.1552217,0 -0.2116667,-0.0452 -0.2116667,-0.16933 z m 11.2606657,0 c 0,-0.11289 0.0564,-0.16934 0.16933,-0.16934 0.11289,0 0.16934,0.0565 0.16934,0.16934 0,0.11288 -0.0564,0.16933 -0.16934,0.16933 -0.11288,0 -0.16933,-0.0565 -0.16933,-0.16933 z m 2.62467,0 c 0,-0.12418 0.0564,-0.16934 0.21166,-0.16934 0.15523,0 0.21167,0.0452 0.21167,0.16934 0,0.12417 -0.0564,0.16933 -0.21167,0.16933 -0.15522,0 -0.21166,-0.0452 -0.21166,-0.16933 z"
       id="path900"
       inkscape:connector-curvature="0" />
  </g>
</svg>
